<?xml version="1.0" encoding="utf-8"?>
<!-- Generator: Adobe Illustrator 24.1.2, SVG Export Plug-In . SVG Version: 6.00 Build 0)  -->
<svg version="1.1" id="Layer_1" xmlns="http://www.w3.org/2000/svg" xmlns:xlink="http://www.w3.org/1999/xlink" x="0px" y="0px"
	 viewBox="0 0 1306.1 1800" style="enable-background:new 0 0 1306.1 1800;" xml:space="preserve">
<g>
	<g>
		<path d="M732.4,778.6c0.2,0,173-1.9,173-1.9S580,1389,581,1389h111.6c66.1,0,125.2-41,148.4-102.9
			c81.4-217.4,263.7-704.5,265.7-710.6l-267.6,2.4L732.4,778.6z"/>
	</g>
	<g>
		<path d="M435.2,111.9L38.5,1195.7c-32.4,69.7-7.1,152.7,58.8,192.4l188.9,1.2c-4.9,9.7-16.1,396.5-16.1,396.5l245.7-672.5
			c-4.5-0.8-164.8,3.7-164.8,3.7l309.6-825.1l335.2-1.3l-45.1,79.9l231.4,0.9c15.9-33.5,62.8-180.9,101.6-277
			c13.9-34.5-16.8-71.9-54-70.1l-674.4-1.6C486.3,26.1,464.3,49.4,435.2,111.9z"/>
	</g>
</g>
</svg>
