<?xml version="1.0" encoding="utf-8"?>
<!-- Generator: Adobe Illustrator 24.1.2, SVG Export Plug-In . SVG Version: 6.00 Build 0)  -->
<svg version="1.1" id="Layer_1" xmlns="http://www.w3.org/2000/svg" xmlns:xlink="http://www.w3.org/1999/xlink" x="0px" y="0px"
	 viewBox="0 0 1432.7 806.1" style="enable-background:new 0 0 1432.7 806.1;" xml:space="preserve">
<style type="text/css">
	.st0{fill:url(#SVGID_1_);}
	.st1{fill:#F6F5BC;}
</style>
<g>
	<linearGradient id="SVGID_1_" gradientUnits="userSpaceOnUse" x1="732.8591" y1="-25.6508" x2="693.9806" y2="869.0276">
		<stop  offset="5.618000e-03" style="stop-color:#FBC926"/>
		<stop  offset="0.1411" style="stop-color:#FFFBCC"/>
		<stop  offset="0.1718" style="stop-color:#F8F0BB"/>
		<stop  offset="0.2327" style="stop-color:#E7D28E"/>
		<stop  offset="0.3175" style="stop-color:#CCA246"/>
		<stop  offset="0.3212" style="stop-color:#CBA043"/>
		<stop  offset="0.405" style="stop-color:#F5E5A4"/>
		<stop  offset="0.4777" style="stop-color:#EDDB9C"/>
		<stop  offset="0.5304" style="stop-color:#DBBC6D"/>
		<stop  offset="0.5955" style="stop-color:#C3922E"/>
		<stop  offset="0.7793" style="stop-color:#D8B766"/>
		<stop  offset="0.8708" style="stop-color:#EED688"/>
		<stop  offset="1" style="stop-color:#FFFBCC"/>
	</linearGradient>
	<path class="st0" d="M129.1,761c1.9-62.3,4.6-138.9,6-145.9l2.7-5.4l-87.1-0.6c-26.2-16.4-36.1-49.6-23-77.8l0.1-0.2l172-469.8
		C212,35,220.3,26.6,248.1,25.2l292.4,0.7c0.3,0,0.6,0,0.9,0c6.5,0,12.9,3.4,16.6,9c3.3,4.9,4,10.7,1.9,15.9
		c-8.8,21.9-18.5,49.5-27,73.7c-6.7,19.1-12.5,35.8-15.9,43.8l-90.9-0.4l19.6-34.7L291,133.9L153.7,499.7l5.9-0.2
		c0.5,0,48.8-1.4,65.6-1.6L129.1,761z M1146.2,676.2l39.9-109.4h49.1c2.8,0,3.5,1.1,3.8,1.6c0.5,0.8,0.7,1.4,0.7,2.3
		c0,0.8-0.2,1.7-0.6,2.7l-34.1,93.5c-1,2.6-2.8,4.8-5.3,6.7c-2.4,1.8-4.8,2.7-7.3,2.7H1146.2z M1164.3,662.6h29.2l29.9-82.1h-29.2
		L1164.3,662.6z M1073.8,676.2l17.9-49.3h-29.2l-17.9,49.3h-13.1l36.4-100c1-2.6,2.8-4.8,5.3-6.7c2.4-1.8,4.8-2.7,7.3-2.7h39.9
		c2.8,0,3.5,1.1,3.8,1.6c0.5,0.8,0.7,1.4,0.7,2.3c0,0.8-0.2,1.7-0.6,2.7l-37.5,102.9H1073.8z M1067.4,613.3h29.2l12.1-32.8h-29.2
		L1067.4,613.3z M924.4,676.2c-2.8,0-3.5-1.1-3.8-1.6c-0.5-0.8-0.7-1.4-0.7-2.3c0-0.8,0.2-1.7,0.6-2.7l8.9-24.3h13.1l-6.3,17.2h29.2
		l9.1-25.1l-30.1-25.1c-0.9-0.9-1.4-1.9-1.4-3.3c0-0.8,0.2-1.9,0.6-3l10.9-29.9c1-2.6,2.8-4.8,5.3-6.7c2.4-1.8,4.8-2.7,7.3-2.7h39.9
		c2.8,0,3.5,1.1,3.8,1.6c0.5,0.8,0.7,1.4,0.7,2.3c0,0.8-0.2,1.7-0.6,2.7l-7.8,21.3h-13.1l5.2-14.2h-29.2l-7.6,20.7l30.2,24.8
		c0.9,1,1.3,2,1.3,3.4c0,0.9-0.2,2-0.5,3.2l-12.6,34.3c-1,2.6-2.8,4.8-5.3,6.7c-2.4,1.8-4.8,2.7-7.3,2.7H924.4z M739.8,676.2
		l39.9-109.4h13.1l-39.9,109.4H739.8z M665,676.2l-24.3-32.6c-1-1.5-1.5-3.1-1.5-4.9c0-1.5,0.3-3.1,0.9-4.8l24.5-67.1h13.1l-23.7,65
		l19.7,26.1l33.2-91.1h13.1l-39.9,109.4H665z M518.6,676.2c-2.4,0-3.3-0.9-3.9-1.8c-0.4-0.6-0.6-1.3-0.6-2.1c0-0.8,0.2-1.7,0.6-2.7
		l34.1-93.5c1-2.6,2.8-4.8,5.3-6.7c2.4-1.8,4.8-2.7,7.3-2.7h39.9c2.4,0,3.3,0.9,3.9,1.8c0.4,0.6,0.6,1.3,0.6,2.1
		c0,0.8-0.2,1.7-0.6,2.7l-34.1,93.5c-0.9,2.6-2.6,4.8-5.2,6.6c-2.6,1.8-5.1,2.8-7.4,2.8H518.6z M530.4,662.6h29.2l30-82.1h-29.2
		L530.4,662.6z M442.2,676.2l1.3-53.9h-9.7l-19.6,53.9H401l39.9-109.4h11.3l-0.7,53h9l19.4-53h13.1l-39.9,109.4H442.2z M265.7,609.5
		c16-30.6,94.5-178.3,137.6-259.6l3.1-5.9c0,0-66.6,0.7-75,0.8l42-79l107.9-0.9c-12.5,33.7-81.9,219.1-113.2,302.6
		c-9.4,25.1-33.8,42-60.6,42H265.7z M1191.6,515.6l98.4-270.7l-124.7,151.9l-15-147.5l-97.4,266.3h-69.7L1135,98.8h67.7l12.3,162.8
		l129.1-162.8h69l-151.8,416.8H1191.6z M753.3,515.6c-10.3,0-17.7-3.6-22.8-10.9c-2.7-4.1-4-8.5-4-13.5c0-4.2,1-8.8,2.9-13.5
		l123.2-338c4.4-11.3,12.1-21,22.7-29c10.6-7.9,21.6-11.8,32.8-11.8h144.5c10.3,0,17.7,3.6,22.8,10.9c2.7,4.1,4,8.5,4,13.5
		c0,4.2-1,8.8-2.9,13.5l-123.2,338c-3.9,11.3-11.6,21-22.6,28.9c-11.1,7.9-22.1,11.9-32.8,11.9H753.3z M810.7,445.4h83.5L995,169
		h-83.5L810.7,445.4z M602.6,515.6L669,334h-74l-66.3,181.6h-69.7L610.8,98.8h175.6c10.7,0,18.1,3.5,22.7,10.8
		c2.8,4.2,4.1,8.6,4.1,13.7c0,4.2-1,8.7-2.9,13.5L763.8,264c-3.4,9.1-9,16.3-16.6,21.3c-7.7,5.1-14.7,7.6-20.7,7.6H711l-7.5,21.4
		h18.3c5.5,0,9.9,2.3,13.4,7l0.2,0.2c2,2.4,3,5.5,3,9.3c0,2.7-0.7,6.3-2.2,10.6l-63.7,174.1H602.6z M620.5,263.8h74L729,169h-74
		L620.5,263.8z"/>
	<path class="st1" d="M248.2,29.2l292.1,0.7l0.2,0l0.2,0c0.2,0,0.5,0,0.7,0c5.2,0,10.3,2.8,13.3,7.2c1.5,2.2,3.7,6.8,1.6,12.2
		c-8.9,22-18.5,49.6-27,73.9c-6,17.3-11.4,32.6-14.8,41.1L433,164l12.9-22.8l6.7-11.9l-13.7,0.1l-145.3,0.6l-5.5,0l-1.9,5.1
		L152,492.8l-4.2,11.1l11.8-0.3c0.5,0,39.8-1.1,59.8-1.5l-85.6,234.4c1.7-53.8,3.9-111.5,5.1-120.1l5.3-10.5l-12.8-0.1l-79.6-0.5
		C28,589.6,19.2,559,31.3,533l0.1-0.3l0.1-0.3L203.4,62.9C215,38,222.4,30.5,248.2,29.2 M1407.5,102.8l-148.9,408.8h-61.2
		l88.5-243.6l15.9-43.7l-29.5,35.9l-103.9,126.6l-12.3-120.7l-3.5-34.4l-11.9,32.5l-90.5,247.4h-61.2l148.9-408.8h61.3l11.3,149
		l1.5,20.3l12.6-15.9l121.6-153.3H1407.5 M1052.5,102.8c9,0,15.2,2.9,19.5,9.1c2.3,3.4,3.4,7.1,3.4,11.3c0,3.7-0.9,7.7-2.6,12.1
		l0,0.1l0,0.1L949.5,473.4l0,0.1l0,0.1c-3.7,10.6-10.6,19.4-21.2,26.9c-10.4,7.4-20.7,11.2-30.5,11.2H753.3c-9,0-15.2-2.9-19.5-9.1
		c-2.3-3.4-3.4-7.1-3.4-11.3c0-3.7,0.9-7.8,2.6-12l0-0.1l0-0.1L856.2,141c4.2-10.8,11.2-19.7,21.4-27.2c10-7.4,19.9-11.1,30.4-11.1
		H1052.5 M805.1,449.4h11.4h75h5.6l1.9-5.2l97.9-268.4l3.9-10.7h-11.4h-75h-5.6l-1.9,5.2L809,438.7L805.1,449.4 M786.4,102.8
		c12.3,0,16.9,5.1,19.3,8.9l0.1,0.1l0.1,0.1c2.3,3.4,3.4,7.2,3.4,11.4c0,3.7-0.9,7.7-2.6,12.1l0,0.1l0,0.1L760,262.6
		c-3.1,8.4-8,14.8-15.1,19.4c-7.1,4.6-13.3,7-18.5,7h-12.6h-5.6l-1.9,5.3l-4.7,13.4l-3.7,10.6h11.2h12.6c4.3,0,7.4,1.7,10.2,5.4
		l0.1,0.2l0.2,0.2c1.4,1.7,2.1,3.9,2.1,6.8c0,1.6-0.3,4.4-1.9,9.2l-62.8,171.5h-61.2l62.4-170.9l3.9-10.7h-11.4h-65.5h-5.6l-1.9,5.2
		l-64.4,176.4h-61.2l148.9-408.8H786.4 M614.8,267.8h11.4h65.5h5.6l1.9-5.2l31.6-86.8l3.9-10.7h-11.4h-65.5h-5.6l-1.9,5.2
		l-31.6,86.8L614.8,267.8 M475.7,268.9c-12.2,32.7-52,139.1-111.2,297.2c-8.8,23.6-31.7,39.4-56.9,39.4h-35.3
		c21.1-40.2,93.8-176.9,134.6-253.7l6.3-11.8l-13.4,0.1c-32.6,0.4-51.1,0.6-61.6,0.7l37.8-71L475.7,268.9 M1235.2,570.8
		c0.2,0,0.4,0,0.5,0c0,0.2-0.1,0.5-0.3,1.1l0,0.1l0,0.1l-34,93.3c-0.8,1.9-2.1,3.5-4,4.9c-1.7,1.3-3.4,1.9-5,1.9h-40.6l37-101.5
		H1235.2 M1158.6,666.5h11.4h20.7h5.6l1.9-5.2l27-74.2l3.9-10.7h-11.4H1197h-5.6l-1.9,5.2l-27.1,74.2L1158.6,666.5 M1120.5,570.8
		c0.2,0,0.4,0,0.5,0c0,0.2-0.1,0.5-0.3,1.1l0,0.1l0,0.1l-36.5,100.1h-4.7l14-38.6l3.9-10.7H1086h-20.7h-5.6l-1.9,5.2l-16,44.1h-4.7
		l34.5-94.6c0.8-1.9,2.1-3.5,4-5c1.7-1.3,3.4-1.9,5-1.9H1120.5 M1061.7,617.2h11.4h20.7h5.5l1.9-5.2l9.2-24.9l3.9-10.7H1103h-20.7
		h-5.5l-1.9,5.2l-9.2,24.9L1061.7,617.2 M1007,570.8c0.2,0,0.4,0,0.5,0c0,0.2-0.1,0.5-0.3,1.1l0,0.1l0,0.1l-6.8,18.6h-4.6l1.3-3.5
		l4-10.7h-11.4h-20.7h-5.6l-1.9,5.2l-5.7,15.5l-1.9,5.3l4.4,3.6l27.7,22.8c0.1,0.1,0.1,0.3,0.1,0.5c0,0.4-0.1,1-0.3,2l-12.5,34
		c-0.8,1.9-2.1,3.5-4,5c-1.7,1.3-3.4,1.9-5,1.9h-39.9c-0.2,0-0.4,0-0.5,0c0-0.2,0.1-0.5,0.3-1.1l0-0.1l0-0.1l7.9-21.6h4.6l-2.4,6.5
		l-3.9,10.7h11.4h20.7h5.6l1.9-5.2l7.2-19.9l1.9-5.2l-4.3-3.6l-27.7-23.2c-0.1-0.1-0.2-0.2-0.2-0.2l0,0c0,0,0-0.1,0-0.2
		c0-0.1,0-0.6,0.4-1.6l10.9-29.8c0.8-1.9,2.1-3.5,4-5c1.7-1.3,3.4-1.9,5-1.9H1007 M787.1,570.8l-37,101.5h-4.7l37-101.5H787.1
		 M714.5,570.8l-37,101.5H667l-23-30.8c-0.5-0.8-0.8-1.6-0.8-2.6c0-1,0.2-2.2,0.6-3.5l23.6-64.5h4.7l-21,57.6l-1.5,4.1l2.6,3.4
		l14,18.5l8.8,11.7l5-13.8l29.7-81.6H714.5 M601.3,570.8c0.2,0,0.4,0,0.5,0c0,0.2-0.1,0.5-0.3,1.1l0,0.1l0,0.1l-34,93.4l0,0.1l0,0.1
		c-0.6,1.8-1.8,3.3-3.8,4.6c-1.9,1.3-3.6,2-5.1,2h-39.9c-0.2,0-0.4,0-0.5,0c0-0.2,0.1-0.5,0.3-1l0-0.1l0-0.1l34-93.3
		c0.8-1.9,2.1-3.5,4-5c1.7-1.3,3.4-1.9,5-1.9H601.3 M524.7,666.5h11.4h20.7h5.6l1.9-5.2l27.1-74.2l3.9-10.7h-11.4h-20.7h-5.6
		l-1.9,5.2l-27,74.2L524.7,666.5 M487.4,570.8l-37,101.5h-4.2l1.1-45.7l0.2-8.1h-8.2h-2.8H431l-1.9,5.2l-17.7,48.6h-4.7l37-101.5
		h4.5l-0.6,45l-0.1,8.1h8.1h2.2h5.6l1.9-5.2l17.5-47.8H487.4 M248,21.2c-29.9,1.5-39.4,11.5-52,38.7L24,529.7
		C10,559.9,21,595.9,49.5,613.1l81.9,0.5c-2.1,4.2-7,171.9-7,171.9L230.9,494c-0.2,0-0.8,0-1.8,0c-11.1,0-69.7,1.6-69.7,1.6
		l134.2-357.7l145.3-0.6l-19.6,34.7l100.3,0.4c6.9-14.5,27.2-78.4,44-120.1c5.9-14.6-6.7-30.4-22.3-30.4c-0.4,0-0.8,0-1.1,0
		L248,21.2L248,21.2z M1418.8,94.8h-76.6l-124,156.3l-11.8-156.3h-74.2L977.5,519.6h78.2l92.4-252.6l14.2,139.7l116.1-141.3
		l-92.4,254.2h78.2L1418.8,94.8L1418.8,94.8z M1052.5,94.8H908c-12.1,0-23.8,4.2-35.1,12.6c-11.3,8.4-19.3,18.7-24.1,30.8
		L725.6,476.1c-2.1,5.3-3.2,10.3-3.2,15c0,5.8,1.6,11.1,4.7,15.8c5.8,8.4,14.5,12.6,26.1,12.6h144.5c11.6,0,23.3-4.2,35.1-12.6
		c11.8-8.4,19.9-18.7,24.1-30.8l123.2-337.9c2.1-5.3,3.2-10.3,3.2-15c0-5.8-1.6-11.1-4.7-15.8C1072.7,99,1064.1,94.8,1052.5,94.8
		L1052.5,94.8z M989.3,173l-97.9,268.4h-75L914.3,173H989.3L989.3,173z M786.4,94.8H608L453.3,519.6h78.2L597.7,338h65.5L597,519.6
		h78.2l64.7-176.9c1.6-4.7,2.4-8.7,2.4-11.8c0-4.7-1.3-8.7-3.9-11.8c-4.2-5.8-9.7-8.7-16.6-8.7h-12.6l4.7-13.4h12.6
		c6.8,0,14.5-2.8,22.9-8.3c8.4-5.5,14.5-13.3,18.2-23.3l46.6-127.1c2.1-5.3,3.2-10.3,3.2-15c0-5.8-1.6-11.1-4.7-15.8
		C807.2,99,798.5,94.8,786.4,94.8L786.4,94.8z M723.3,173l-31.6,86.8h-65.5l31.6-86.8H723.3L723.3,173z M487.1,260.8l-116,1
		l-46.3,87c0.1,0,75-0.8,75-0.8S258.8,613.5,259.2,613.5h48.4c28.6,0,54.3-17.8,64.3-44.6C407.2,474.6,486.3,263.5,487.1,260.8
		L487.1,260.8z M1235.2,562.8h-51.9l-42.8,117.4h51.9c3.3,0,6.6-1.2,9.7-3.5c3.1-2.3,5.3-5.2,6.7-8.5l34-93.4
		c0.6-1.5,0.9-2.8,0.9-4.1c0-1.6-0.4-3.1-1.3-4.4C1240.9,564,1238.5,562.8,1235.2,562.8L1235.2,562.8z M1217.8,584.4l-27,74.2H1170
		l27.1-74.2H1217.8L1217.8,584.4z M1120.5,562.8h-39.9c-3.3,0-6.6,1.2-9.7,3.5c-3.1,2.3-5.3,5.2-6.7,8.5l-38.4,105.4h21.6l17.9-49.3
		h20.7l-17.9,49.3h21.6l38.4-105.4c0.6-1.5,0.9-2.8,0.9-4.1c0-1.6-0.4-3.1-1.3-4.4C1126.2,564,1123.8,562.8,1120.5,562.8
		L1120.5,562.8z M1103,584.4l-9.2,24.9h-20.7l9.2-24.9H1103L1103,584.4z M1007,562.8h-39.9c-3.3,0-6.6,1.2-9.7,3.5
		c-3.1,2.3-5.3,5.2-6.7,8.5l-10.9,29.9c-0.6,1.6-0.9,3.1-0.9,4.4c0,2.5,0.9,4.6,2.8,6.3l27.9,23.3l-7.2,19.9h-20.7l6.3-17.2h-21.6
		l-9.8,26.8c-0.6,1.5-0.9,2.8-0.9,4.1c0,1.6,0.4,3.1,1.3,4.4c1.5,2.3,3.9,3.5,7.2,3.5h39.9c3.3,0,6.6-1.2,9.7-3.5
		c3.1-2.3,5.3-5.2,6.7-8.5l12.7-34.5c0.4-1.6,0.7-3.1,0.7-4.4c0-2.5-0.9-4.6-2.6-6.3l-28.1-23.1l5.7-15.5h20.7l-5.2,14.2h21.6
		l8.7-23.8c0.6-1.5,0.9-2.8,0.9-4.1c0-1.6-0.4-3.1-1.3-4.4C1012.8,564,1010.4,562.8,1007,562.8L1007,562.8z M798.5,562.8h-21.6
		l-42.8,117.4h21.6L798.5,562.8L798.5,562.8z M725.8,562.8h-21.6l-31.6,86.8l-14-18.5l24.9-68.3h-21.6l-25.5,69.8
		c-0.7,2.2-1.1,4.2-1.1,6.1c0,2.6,0.7,5,2.2,7.2l25.5,34.2h20.1L725.8,562.8L725.8,562.8z M601.3,562.8h-39.9
		c-3.3,0-6.6,1.2-9.7,3.5c-3.1,2.3-5.3,5.2-6.7,8.5l-34,93.4c-0.6,1.5-0.9,2.8-0.9,4.1c0,1.6,0.4,3.1,1.3,4.4c1.6,2.3,4,3.5,7.2,3.5
		h39.9c3.2,0,6.4-1.2,9.7-3.5c3.3-2.3,5.5-5.2,6.7-8.5l34-93.4c0.6-1.5,0.9-2.8,0.9-4.1c0-1.6-0.4-3.1-1.3-4.4
		C606.9,564,604.5,562.8,601.3,562.8L601.3,562.8z M583.8,584.4l-27.1,74.2h-20.7l27-74.2H583.8L583.8,584.4z M498.8,562.8h-21.6
		l-19.4,53h-2.2l0.7-53h-18.1l-42.8,117.4H417l19.6-53.9h2.8l-1.3,53.9H456L498.8,562.8L498.8,562.8z"/>
</g>
</svg>
