<?xml version="1.0" encoding="utf-8"?>
<!-- Generator: Adobe Illustrator 24.1.2, SVG Export Plug-In . SVG Version: 6.00 Build 0)  -->
<svg version="1.1" id="Layer_1" xmlns="http://www.w3.org/2000/svg" xmlns:xlink="http://www.w3.org/1999/xlink" x="0px" y="0px"
	 viewBox="0 0 1432.7 806.1" style="enable-background:new 0 0 1432.7 806.1;" xml:space="preserve">
<g>
	<g>
		<g>
			<path d="M662.3,528.8H588l63-172.6h-62.3l-63,172.6h-74.3l147.1-403.7h169.6c11.5,0,19.8,4,24.8,12c3,4.5,4.5,9.5,4.5,15
				c0,4.5-1,9.3-3,14.3l-44.3,120.8c-3.5,9.5-9.3,16.9-17.3,22.1c-8,5.3-15.3,7.9-21.8,7.9h-12l-4.5,12.8h12
				c6.5,0,11.7,2.8,15.8,8.3c2.5,3,3.8,6.8,3.8,11.3c0,3-0.7,6.8-2.3,11.3L662.3,528.8z M678.1,281.9l30-82.5h-62.3l-30,82.5H678.1z
				"/>
		</g>
		<g>
			<path d="M873.9,528.8H736.6c-11,0-19.3-4-24.8-12c-3-4.5-4.5-9.5-4.5-15c0-4.5,1-9.2,3-14.3l117.1-321.2
				c4.5-11.5,12.1-21.3,22.9-29.3c10.8-8,21.9-12,33.4-12H1021c11,0,19.3,4,24.8,12c3,4.5,4.5,9.5,4.5,15c0,4.5-1,9.3-3,14.3
				L930.2,487.5c-4,11.5-11.6,21.3-22.9,29.3C896.1,524.8,884.9,528.8,873.9,528.8z M867.9,454.5l93-255.1h-71.3l-93.1,255.1H867.9z
				"/>
		</g>
		<g>
			<path d="M1222.1,528.8h-74.3l87.8-241.6l-110.3,134.3l-13.5-132.8L1024,528.8h-74.3l147.1-403.7h70.5l11.3,148.6l117.8-148.6
				h72.8L1222.1,528.8z"/>
		</g>
	</g>
	<g>
		<path d="M454,681.5h-17l1.2-51.2h-2.7l-18.7,51.2h-20.5L437,569.9h17.2l-0.6,50.4h2.1l18.5-50.4h20.5L454,681.5z"/>
		<path d="M551.5,681.5h-37.9c-3,0-5.3-1.1-6.8-3.3c-0.8-1.2-1.2-2.6-1.2-4.1c0-1.2,0.3-2.6,0.8-3.9l32.3-88.7
			c1.2-3.2,3.3-5.9,6.3-8.1c3-2.2,6-3.3,9.2-3.3h37.9c3,0,5.3,1.1,6.8,3.3c0.8,1.2,1.2,2.6,1.2,4.1c0,1.2-0.3,2.6-0.8,3.9L567,670.1
			c-1.1,3.2-3.2,5.9-6.3,8.1C557.6,680.4,554.5,681.5,551.5,681.5z M549.8,660.9l25.7-70.5h-19.7l-25.7,70.5H549.8z"/>
		<path d="M669.9,681.5h-19.1l-24.3-32.6c-1.4-2.1-2.1-4.4-2.1-6.8c0-1.8,0.3-3.7,1-5.8l24.3-66.4h20.5l-23.6,64.9l13.3,17.6
			l30.1-82.5h20.5L669.9,681.5z"/>
		<path d="M738.9,681.5h-20.5L759,569.9h20.5L738.9,681.5z"/>
		<path d="M937.2,681.5h-37.9c-3.2,0-5.5-1.1-6.8-3.3c-0.8-1.2-1.2-2.6-1.2-4.1c0-1.2,0.3-2.6,0.8-3.9l9.3-25.5h20.5l-6,16.4h19.7
			l6.8-18.9l-26.5-22.2c-1.8-1.7-2.7-3.7-2.7-6c0-1.2,0.3-2.6,0.8-4.1l10.4-28.4c1.2-3.2,3.4-5.9,6.3-8.1c3-2.2,6-3.3,9.2-3.3h37.9
			c3.2,0,5.5,1.1,6.8,3.3c0.8,1.2,1.2,2.6,1.2,4.1c0,1.2-0.3,2.6-0.8,3.9l-8.3,22.6h-20.5l5-13.5h-19.7l-5.4,14.7l26.7,22
			c1.7,1.7,2.5,3.7,2.5,6c0,1.2-0.2,2.6-0.6,4.1l-12,32.8c-1.2,3.2-3.4,5.9-6.3,8.1C943.4,680.4,940.3,681.5,937.2,681.5z"/>
		<path d="M1056.4,681.5h-20.5l17-46.9h-19.7l-17,46.9h-20.5l36.5-100.1c1.2-3.2,3.4-5.9,6.3-8.1c3-2.2,6-3.3,9.2-3.3h37.9
			c3.2,0,5.5,1.1,6.8,3.3c0.8,1.2,1.2,2.6,1.2,4.1c0,1.2-0.3,2.6-0.8,3.9L1056.4,681.5z M1060.3,614.1l8.7-23.6h-19.7l-8.7,23.6
			H1060.3z"/>
		<path d="M1154,681.5h-49.4l40.6-111.6h49.4c3.2,0,5.5,1.1,6.8,3.3c0.8,1.2,1.2,2.6,1.2,4.1c0,1.2-0.3,2.6-0.8,3.9l-32.3,88.7
			c-1.2,3.2-3.4,5.9-6.3,8.1C1160.3,680.4,1157.2,681.5,1154,681.5z M1152.4,660.9l25.7-70.5h-19.7l-25.7,70.5H1152.4z"/>
	</g>
	<g>
		<g>
			<path d="M329.4,366.6c0.1,0,71.3-0.8,71.3-0.8S266.6,618,267,618.1h46c27.2,0,51.6-16.9,61.1-42.4
				c33.5-89.6,108.7-290.3,109.5-292.8l-110.2,1L329.4,366.6z"/>
		</g>
		<g>
			<path d="M206.9,91.8L43.5,538.4c-13.4,28.7-2.9,62.9,24.2,79.3l77.8,0.5c-2,4-6.6,163.4-6.6,163.4l101.2-277.1
				c-1.8-0.3-67.9,1.5-67.9,1.5l127.6-340l138.1-0.6l-18.6,32.9l95.3,0.4c6.6-13.8,25.9-74.5,41.9-114.1
				c5.7-14.2-6.9-29.6-22.2-28.9l-277.9-0.7C228,56.5,218.9,66.1,206.9,91.8z"/>
		</g>
	</g>
</g>
</svg>
