<?xml version="1.0" encoding="utf-8"?>
<!-- Generator: Adobe Illustrator 19.0.0, SVG Export Plug-In . SVG Version: 6.00 Build 0)  -->
<svg version="1.1" id="Layer_1" xmlns="http://www.w3.org/2000/svg" xmlns:xlink="http://www.w3.org/1999/xlink" x="0px" y="0px"
	 viewBox="295 -105.8 1432.7 806.1" style="enable-background:new 295 -105.8 1432.7 806.1;" xml:space="preserve">
<style type="text/css">
	.st0{fill:url(#SVGID_1_);}
	.st1{fill:#F6F5BC;}
	.st2{fill:#FFD700;}
	.st3{font-family:'Arial-BoldItalicMT';}
	.st4{font-size:36px;}
</style>
<g>
	
		<linearGradient id="SVGID_1_" gradientUnits="userSpaceOnUse" x1="1022.3746" y1="719.7012" x2="988.8355" y2="-52.1061" gradientTransform="matrix(1 0 0 -1 0 593.6401)">
		<stop  offset="5.618000e-003" style="stop-color:#FBC926"/>
		<stop  offset="0.1411" style="stop-color:#FFFBCC"/>
		<stop  offset="0.1718" style="stop-color:#F8F0BB"/>
		<stop  offset="0.2327" style="stop-color:#E7D28E"/>
		<stop  offset="0.3175" style="stop-color:#CCA246"/>
		<stop  offset="0.3212" style="stop-color:#CBA043"/>
		<stop  offset="0.405" style="stop-color:#F5E5A4"/>
		<stop  offset="0.4777" style="stop-color:#EDDB9C"/>
		<stop  offset="0.5304" style="stop-color:#DBBC6D"/>
		<stop  offset="0.5955" style="stop-color:#C3922E"/>
		<stop  offset="0.7793" style="stop-color:#D8B766"/>
		<stop  offset="0.8708" style="stop-color:#EED688"/>
		<stop  offset="1" style="stop-color:#FFFBCC"/>
	</linearGradient>
	<path class="st0" d="M503.5,552.6c1.6-53.7,4-119.8,5.2-125.9l2.3-4.7l-74.9-0.5c-22.5-14.1-31-42.8-19.8-67.1l0.1-0.2L564.2-51
		c10.5-22.7,17.6-29.9,41.5-31.1L857-81.6c0.3,0,0.5,0,0.8,0c5.6,0,11.1,2.9,14.3,7.8c2.8,4.2,3.4,9.2,1.6,13.7
		c-7.6,18.9-15.9,42.7-23.2,63.6c-5.8,16.5-10.7,30.9-13.7,37.8l-78.1-0.3L775.5,11l-132.9,0.6l-118,315.6l5.1-0.2
		c0.4,0,41.9-1.2,56.4-1.4L503.5,552.6z M1377.5,479.5l34.3-94.4h42.2c2.4,0,3,0.9,3.3,1.4c0.4,0.7,0.6,1.2,0.6,2
		c0,0.7-0.2,1.5-0.5,2.3l-29.3,80.7c-0.9,2.2-2.4,4.1-4.6,5.8c-2.1,1.6-4.1,2.3-6.3,2.3L1377.5,479.5L1377.5,479.5z M1393.1,467.7
		h25.1l25.7-70.8h-25.1L1393.1,467.7z M1315.3,479.5l15.4-42.5h-25.1l-15.4,42.5H1279l31.3-86.3c0.9-2.2,2.4-4.1,4.6-5.8
		c2.1-1.6,4.1-2.3,6.3-2.3h34.3c2.4,0,3,0.9,3.3,1.4c0.4,0.7,0.6,1.2,0.6,2c0,0.7-0.2,1.5-0.5,2.3l-32.2,88.8L1315.3,479.5
		L1315.3,479.5z M1309.8,425.2h25.1l10.4-28.3h-25.1L1309.8,425.2z M1186.9,479.5c-2.4,0-3-0.9-3.3-1.4c-0.4-0.7-0.6-1.2-0.6-2
		c0-0.7,0.2-1.5,0.5-2.3l7.6-21h11.3l-5.4,14.8h25.1l7.8-21.7l-25.9-21.7c-0.8-0.8-1.2-1.6-1.2-2.8c0-0.7,0.2-1.6,0.5-2.6l9.4-25.8
		c0.9-2.2,2.4-4.1,4.6-5.8c2.1-1.6,4.1-2.3,6.3-2.3h34.3c2.4,0,3,0.9,3.3,1.4c0.4,0.7,0.6,1.2,0.6,2c0,0.7-0.2,1.5-0.5,2.3
		l-6.7,18.4h-11.3l4.5-12.3h-25.1l-6.5,17.9l26,21.4c0.8,0.9,1.1,1.7,1.1,2.9c0,0.8-0.2,1.7-0.4,2.8l-10.8,29.6
		c-0.9,2.2-2.4,4.1-4.6,5.8c-2.1,1.6-4.1,2.3-6.3,2.3L1186.9,479.5L1186.9,479.5z M1028.3,479.5l34.3-94.4h11.3l-34.3,94.4H1028.3z
		 M964,479.5l-20.9-28.1c-0.9-1.3-1.3-2.7-1.3-4.2c0-1.3,0.3-2.7,0.8-4.1l21.1-57.9h11.3l-20.4,56.1l16.9,22.5l28.5-78.6h11.3
		L977,479.5L964,479.5L964,479.5z M838.2,479.5c-2.1,0-2.8-0.8-3.4-1.6c-0.3-0.5-0.5-1.1-0.5-1.8s0.2-1.5,0.5-2.3l29.3-80.7
		c0.9-2.2,2.4-4.1,4.6-5.8c2.1-1.6,4.1-2.3,6.3-2.3h34.3c2.1,0,2.8,0.8,3.4,1.6c0.3,0.5,0.5,1.1,0.5,1.8s-0.2,1.5-0.5,2.3
		l-29.3,80.7c-0.8,2.2-2.2,4.1-4.5,5.7c-2.2,1.6-4.4,2.4-6.4,2.4L838.2,479.5L838.2,479.5z M848.3,467.7h25.1l25.8-70.8h-25.1
		L848.3,467.7z M772.5,479.5l1.1-46.5h-8.3l-16.8,46.5h-11.3l34.3-94.4h9.7l-0.6,45.7h7.7l16.7-45.7h11.3l-34.3,94.4H772.5z
		 M620.9,421.9c13.7-26.4,81.2-153.8,118.2-224l2.7-5.1c0,0-57.2,0.6-64.5,0.7l36.1-68.2l92.7-0.8c-10.7,29.1-70.4,189-97.3,261.1
		c-8.1,21.7-29,36.2-52.1,36.2H620.9z M1416.6,340.9l84.6-233.5l-107.2,131.1l-12.9-127.3l-83.7,229.7h-59.9l130.5-359.6h58.2
		l10.6,140.5l110.9-140.5h59.3l-130.5,359.6H1416.6z M1039.9,340.9c-8.9,0-15.2-3.1-19.6-9.4c-2.3-3.5-3.4-7.3-3.4-11.6
		c0-3.6,0.9-7.6,2.5-11.6l105.9-291.6c3.8-9.7,10.4-18.1,19.5-25c9.1-6.8,18.6-10.2,28.2-10.2h124.2c8.9,0,15.2,3.1,19.6,9.4
		c2.3,3.5,3.4,7.3,3.4,11.6c0,3.6-0.9,7.6-2.5,11.6l-105.9,291.6c-3.4,9.7-10,18.1-19.4,24.9c-9.5,6.8-19,10.3-28.2,10.3H1039.9z
		 M1089.2,280.4h71.8l86.6-238.5h-71.8L1089.2,280.4z M910.4,340.9l57.1-156.7h-63.6l-57,156.7H787L917.4-18.7h150.9
		c9.2,0,15.6,3,19.5,9.3c2.4,3.6,3.5,7.4,3.5,11.8c0,3.6-0.9,7.5-2.5,11.6l-40,109.7c-2.9,7.9-7.7,14.1-14.3,18.4
		c-6.6,4.4-12.6,6.6-17.8,6.6h-13.3l-6.4,18.5h15.7c4.7,0,8.5,2,11.5,6l0.2,0.2c1.7,2.1,2.6,4.7,2.6,8c0,2.3-0.6,5.4-1.9,9.1
		l-54.7,150.2L910.4,340.9L910.4,340.9z M925.8,123.7h63.6l29.6-81.8h-63.6L925.8,123.7z"/>
	<path class="st1" d="M605.8-78.7l251,0.6h0.2h0.2c0.2,0,0.4,0,0.6,0c4.5,0,8.9,2.4,11.4,6.2c1.3,1.9,3.2,5.9,1.4,10.5
		c-7.6,19-15.9,42.8-23.2,63.8c-5.2,14.9-9.8,28.1-12.7,35.5l-70-0.3l11.1-19.7l5.8-10.3l-11.8,0.1L644.8,8.2h-4.7l-1.6,4.4
		L523.1,321.3l-3.6,9.6l10.1-0.3c0.4,0,34.2-0.9,51.4-1.3l-73.6,202.2c1.5-46.4,3.4-96.2,4.4-103.6l4.6-9.1l-11-0.1l-68.4-0.4
		c-20.5-13.5-28-39.9-17.6-62.4l0.1-0.3l0.1-0.3L567.3-49.6C577.3-71.1,583.6-77.6,605.8-78.7 M1602.1-15.2l-128,352.7h-52.6
		l76.1-210.2l13.7-37.7l-25.4,31l-89.3,109.2L1386,125.7l-3-29.7l-10.2,28L1295,337.5h-52.6l128-352.7h52.7l9.7,128.5l1.3,17.5
		l10.8-13.7l104.5-132.3L1602.1-15.2 M1297-15.2c7.7,0,13.1,2.5,16.8,7.9c2,2.9,2.9,6.1,2.9,9.7c0,3.2-0.8,6.6-2.2,10.4v0.1V13
		l-106,291.5v0.1v0.1c-3.2,9.1-9.1,16.7-18.2,23.2c-8.9,6.4-17.8,9.7-26.2,9.7h-124.2c-7.7,0-13.1-2.5-16.8-7.9
		c-2-2.9-2.9-6.1-2.9-9.7c0-3.2,0.8-6.7,2.2-10.4v-0.1v-0.1l105.9-291.7c3.6-9.3,9.6-17,18.4-23.5c8.6-6.4,17.1-9.6,26.1-9.6
		L1297-15.2 M1084.4,283.8h9.8h64.5h4.8l1.6-4.5l84.1-231.6l3.4-9.2h-9.8h-64.5h-4.8l-1.6,4.5l-84.1,231.6L1084.4,283.8
		 M1068.3-15.2c10.6,0,14.5,4.4,16.6,7.7l0.1,0.1l0.1,0.1c2,2.9,2.9,6.2,2.9,9.8c0,3.2-0.8,6.6-2.2,10.4V13v0.1l-40.1,109.6
		c-2.7,7.2-6.9,12.8-13,16.7c-6.1,4-11.4,6-15.9,6h-10.8h-4.8l-1.6,4.6l-4,11.6l-3.2,9.1h9.6h10.8c3.7,0,6.4,1.5,8.8,4.7l0.1,0.2
		l0.2,0.2c1.2,1.5,1.8,3.4,1.8,5.9c0,1.4-0.3,3.8-1.6,7.9l-54,148h-52.6L969,190l3.4-9.2h-9.8h-56.3h-4.8l-1.6,4.5l-55.3,152.2
		h-52.6l128-352.7L1068.3-15.2 M920.9,127.1h9.8H987h4.8l1.6-4.5l27.2-74.9l3.4-9.2h-9.8h-56.3H953l-1.6,4.5l-27.2,74.9L920.9,127.1
		 M801.3,128.1c-10.5,28.2-44.7,120-95.6,256.4c-7.6,20.4-27.2,34-48.9,34h-30.3c18.1-34.7,80.6-152.6,115.7-218.9l5.4-10.2
		l-11.5,0.1c-28,0.3-43.9,0.5-52.9,0.6l32.5-61.3L801.3,128.1 M1454,388.5c0.2,0,0.3,0,0.4,0c0,0.2-0.1,0.4-0.3,0.9v0.1v0.1
		l-29.2,80.5c-0.7,1.6-1.8,3-3.4,4.2c-1.5,1.1-2.9,1.6-4.3,1.6h-34.9l31.8-87.6L1454,388.5 M1388.2,471.1h9.8h17.8h4.8l1.6-4.5
		l23.2-64l3.4-9.2h-9.8h-17.8h-4.8l-1.6,4.5l-23.3,64L1388.2,471.1 M1355.4,388.5c0.2,0,0.3,0,0.4,0c0,0.2-0.1,0.4-0.3,0.9v0.1v0.1
		l-31.4,86.4h-4l12-33.3l3.4-9.2h-9.8H1308h-4.8l-1.6,4.5l-13.8,38h-4l29.6-81.6c0.7-1.6,1.8-3,3.4-4.3c1.5-1.1,2.9-1.6,4.3-1.6
		L1355.4,388.5 M1304.9,428.6h9.8h17.8h4.7l1.6-4.5l7.9-21.5l3.4-9.2h-9.7h-17.8h-4.7l-1.6,4.5l-7.9,21.5L1304.9,428.6
		 M1257.9,388.5c0.2,0,0.3,0,0.4,0c0,0.2-0.1,0.4-0.3,0.9v0.1v0.1l-5.8,16h-4l1.1-3l3.4-9.2h-9.8h-17.8h-4.8l-1.6,4.5l-4.9,13.4
		l-1.6,4.6l3.8,3.1l23.8,19.7c0.1,0.1,0.1,0.3,0.1,0.4c0,0.3-0.1,0.9-0.3,1.7l-10.7,29.3c-0.7,1.6-1.8,3-3.4,4.3
		c-1.5,1.1-2.9,1.6-4.3,1.6h-34.3c-0.2,0-0.3,0-0.4,0c0-0.2,0.1-0.4,0.3-0.9v-0.1V475l6.8-18.6h4l-2.1,5.6l-3.4,9.2h9.8h17.8h4.8
		l1.6-4.5l6.2-17.2l1.6-4.5l-3.7-3.1l-23.8-20c-0.1-0.1-0.2-0.2-0.2-0.2l0,0c0,0,0-0.1,0-0.2c0-0.1,0-0.5,0.3-1.4l9.4-25.7
		c0.7-1.6,1.8-3,3.4-4.3c1.5-1.1,2.9-1.6,4.3-1.6L1257.9,388.5 M1068.9,388.5l-31.8,87.6h-4l31.8-87.6H1068.9 M1006.5,388.5
		l-31.8,87.6h-9L946,449.5c-0.4-0.7-0.7-1.4-0.7-2.2c0-0.9,0.2-1.9,0.5-3l20.3-55.6h4l-18,49.7l-1.3,3.5l2.2,2.9l12,16l7.6,10.1
		l4.3-11.9l25.5-70.4L1006.5,388.5 M909.3,388.5c0.2,0,0.3,0,0.4,0c0,0.2-0.1,0.4-0.3,0.9v0.1v0.1l-29.2,80.6v0.1v0.1
		c-0.5,1.6-1.5,2.8-3.3,4c-1.6,1.1-3.1,1.7-4.4,1.7h-34.3c-0.2,0-0.3,0-0.4,0c0-0.2,0.1-0.4,0.3-0.9v-0.1v-0.1l29.2-80.5
		c0.7-1.6,1.8-3,3.4-4.3c1.5-1.1,2.9-1.6,4.3-1.6L909.3,388.5 M843.4,471.1h9.8H871h4.8l1.6-4.5l23.3-64l3.4-9.2h-9.8h-17.8h-4.8
		l-1.6,4.5l-23.2,64L843.4,471.1 M811.4,388.5l-31.8,87.6H776l0.9-39.4l0.2-7h-7h-2.4h-4.7l-1.6,4.5l-15.2,41.9h-4l31.8-87.6h3.9
		l-0.5,38.8l-0.1,7h7h1.9h4.8l1.6-4.5l15-41.2L811.4,388.5 M605.6-85.6c-25.7,1.3-33.9,9.9-44.7,33.4L413.1,353.1
		c-12,26.1-2.6,57.1,21.9,72l70.4,0.4c-1.8,3.6-6,148.3-6,148.3L591,322.3c-0.2,0-0.7,0-1.5,0c-9.5,0-59.9,1.4-59.9,1.4L644.8,15.1
		l124.9-0.5l-16.8,29.9l86.2,0.3c5.9-12.5,23.4-67.6,37.8-103.6c5.1-12.6-5.8-26.2-19.2-26.2c-0.3,0-0.7,0-0.9,0L605.6-85.6
		L605.6-85.6z M1611.8-22.1H1546l-106.6,134.8l-10.1-134.8h-63.8l-132.9,366.5h67.2l79.4-217.9l12.2,120.5l99.8-121.9l-79.4,219.3
		h67.2L1611.8-22.1L1611.8-22.1z M1297-22.1h-124.2c-10.4,0-20.5,3.6-30.2,10.9C1133-4,1126.1,4.9,1122,15.3l-105.9,291.5
		c-1.8,4.6-2.8,8.9-2.8,12.9c0,5,1.4,9.6,4,13.6c5,7.2,12.5,10.9,22.4,10.9H1164c10,0,20-3.6,30.2-10.9
		c10.1-7.2,17.1-16.1,20.7-26.6l105.9-291.5c1.8-4.6,2.7-8.9,2.7-12.9c0-5-1.4-9.6-4-13.6C1314.4-18.5,1307-22.1,1297-22.1
		L1297-22.1z M1242.7,45.3l-84.1,231.6h-64.5l84.1-231.6H1242.7L1242.7,45.3z M1068.3-22.1H915L782.1,344.4h67.2l56.9-156.7h56.3
		l-56.9,156.7h67.2l55.6-152.6c1.4-4.1,2.1-7.5,2.1-10.2c0-4.1-1.1-7.5-3.4-10.2c-3.6-5-8.3-7.5-14.3-7.5H1002l4-11.6h10.8
		c5.8,0,12.5-2.4,19.7-7.2c7.2-4.7,12.5-11.5,15.6-20.1l40-109.7c1.8-4.6,2.8-8.9,2.8-12.9c0-5-1.4-9.6-4-13.6
		C1086.2-18.5,1078.7-22.1,1068.3-22.1L1068.3-22.1z M1014.1,45.3L987,120.2h-56.3l27.2-74.9L1014.1,45.3L1014.1,45.3z M811.1,121.1
		l-99.7,0.9L671.6,197c0.1,0,64.5-0.7,64.5-0.7S614.9,425.4,615.3,425.4h41.6c24.6,0,46.7-15.4,55.3-38.5
		C742.5,305.5,810.4,123.4,811.1,121.1L811.1,121.1z M1454,381.6h-44.6l-36.8,101.3h44.6c2.8,0,5.7-1,8.3-3c2.7-2,4.6-4.5,5.8-7.3
		l29.2-80.6c0.5-1.3,0.8-2.4,0.8-3.5c0-1.4-0.3-2.7-1.1-3.8C1458.9,382.7,1456.9,381.6,1454,381.6L1454,381.6z M1439.1,400.3
		l-23.2,64H1398l23.3-64H1439.1L1439.1,400.3z M1355.4,381.6h-34.3c-2.8,0-5.7,1-8.3,3c-2.7,2-4.6,4.5-5.8,7.3l-33,90.9h18.6
		l15.4-42.5h17.8l-15.4,42.5h18.6l33-90.9c0.5-1.3,0.8-2.4,0.8-3.5c0-1.4-0.3-2.7-1.1-3.8C1360.3,382.7,1358.3,381.6,1355.4,381.6
		L1355.4,381.6z M1340.4,400.3l-7.9,21.5h-17.8l7.9-21.5H1340.4L1340.4,400.3z M1257.9,381.6h-34.3c-2.8,0-5.7,1-8.3,3
		c-2.7,2-4.6,4.5-5.8,7.3l-9.4,25.8c-0.5,1.4-0.8,2.7-0.8,3.8c0,2.2,0.8,4,2.4,5.4l24,20.1l-6.2,17.2h-17.8l5.4-14.8h-18.6
		l-8.4,23.1c-0.5,1.3-0.8,2.4-0.8,3.5c0,1.4,0.3,2.7,1.1,3.8c1.3,2,3.4,3,6.2,3h34.3c2.8,0,5.7-1,8.3-3s4.6-4.5,5.8-7.3l10.9-29.8
		c0.3-1.4,0.6-2.7,0.6-3.8c0-2.2-0.8-4-2.2-5.4l-24.1-19.9l4.9-13.4h17.8l-4.5,12.3h18.6l7.5-20.5c0.5-1.3,0.8-2.4,0.8-3.5
		c0-1.4-0.3-2.7-1.1-3.8C1262.9,382.7,1260.8,381.6,1257.9,381.6L1257.9,381.6z M1078.7,381.6h-18.6l-36.8,101.3h18.6L1078.7,381.6
		L1078.7,381.6z M1016.3,381.6h-18.6l-27.2,74.9l-12-16l21.4-58.9h-18.6l-21.9,60.2c-0.6,1.9-0.9,3.6-0.9,5.3c0,2.2,0.6,4.3,1.9,6.2
		l21.9,29.5h17.3L1016.3,381.6L1016.3,381.6z M909.3,381.6H875c-2.8,0-5.7,1-8.3,3c-2.7,2-4.6,4.5-5.8,7.3l-29.2,80.6
		c-0.5,1.3-0.8,2.4-0.8,3.5c0,1.4,0.3,2.7,1.1,3.8c1.4,2,3.4,3,6.2,3h34.3c2.8,0,5.5-1,8.3-3c2.8-2,4.7-4.5,5.8-7.3l29.2-80.6
		c0.5-1.3,0.8-2.4,0.8-3.5c0-1.4-0.3-2.7-1.1-3.8C914.1,382.7,912,381.6,909.3,381.6L909.3,381.6z M894.2,400.3l-23.3,64h-17.8
		l23.2-64H894.2L894.2,400.3z M821.2,381.6h-18.6l-16.7,45.7h-1.9l0.6-45.7h-15.6l-36.8,101.3h18.6l16.8-46.5h2.4l-1.1,46.5h15.4
		L821.2,381.6L821.2,381.6z"/>
</g>
<polygon class="st2" points="1387,571.5 698,571.5 722,505.5 1411,505.5 "/>
<polygon class="st2" points="1387,637.5 698,637.5 722,571.5 1411,571.5 "/>
<text transform="matrix(1 0 0 1 837 549.4601)" class="st3 st4">ZA SVE ŠTO  VAM TREBA</text>
<text transform="matrix(1 0 0 1 737 614.4601)" class="st3 st4">TU SMO KAO GROM IZ VEDRA NEBA</text>
</svg>
